<svg width="100" height="100" viewBox="0 0 100 100" fill="none" xmlns="http://www.w3.org/2000/svg">
<g clip-path="url(#clip0_18062_5)">
<rect width="100" height="100" rx="50" fill="#E7DBD0"/>
<path d="M63.8382 68.8638H63.0584C63.0584 68.8555 63.0546 68.8472 63.0529 68.8395L63.0316 68.7445C63.0179 68.6821 63.0032 68.6202 62.9878 68.5588C62.9813 68.5299 62.9742 68.501 62.9671 68.4721C62.9468 68.391 62.9255 68.31 62.9036 68.229L62.8971 68.2058C62.873 68.118 62.8478 68.0307 62.8216 67.9436L62.7953 67.8595C62.7773 67.7996 62.7582 67.7403 62.7407 67.6809C62.7303 67.6484 62.7193 67.6164 62.7089 67.5844C62.6898 67.5271 62.6701 67.4699 62.6499 67.4131C62.6395 67.3832 62.6285 67.3527 62.6182 67.3233C62.5926 67.2521 62.5664 67.1814 62.5394 67.1112C62.5334 67.0962 62.5285 67.0818 62.5225 67.0668C62.4907 66.9842 62.4574 66.9022 62.4235 66.8201C62.4114 66.7902 62.3989 66.7608 62.3863 66.7314C62.3633 66.6798 62.3403 66.623 62.3168 66.5693L62.2725 66.4697C62.2496 66.4181 62.226 66.3665 62.202 66.3149C62.1872 66.2829 62.1719 66.2504 62.1566 66.2184C62.1287 66.1591 62.1019 66.1002 62.0707 66.0419C62.0593 66.0197 62.0489 65.997 62.0374 65.9743C61.9985 65.8974 61.9586 65.8195 61.9182 65.7452L61.8635 65.6487L61.7864 65.5088L61.7262 65.4056C61.701 65.3623 61.6759 65.3189 61.6502 65.2756C61.63 65.2405 61.6092 65.2054 61.5884 65.1723C61.56 65.1254 61.5337 65.0795 61.5025 65.033L61.4238 64.9071C61.3866 64.8493 61.3494 64.791 61.3111 64.7337C61.2871 64.6976 61.263 64.662 61.2384 64.6264C61.2138 64.5907 61.187 64.55 61.1607 64.5123C61.1345 64.4746 61.1061 64.437 61.082 64.3998C61.0579 64.3626 61.0317 64.3291 61.006 64.2966C60.9803 64.2641 60.9513 64.2207 60.9234 64.1831L60.8463 64.0798C60.7916 64.0112 60.7413 63.9426 60.6877 63.8734L60.6128 63.779C60.5811 63.7392 60.5482 63.7 60.516 63.6608L60.4438 63.5741C60.4104 63.5344 60.3765 63.4951 60.3426 63.4554L60.2715 63.3739L60.1654 63.2541L60.1025 63.185C59.9718 63.042 59.8379 62.9012 59.7006 62.7639L59.6404 62.7035L59.5147 62.5812L59.4529 62.5224C59.4091 62.4806 59.3654 62.4393 59.3211 62.3985L59.2757 62.3572C59.1209 62.2153 58.9618 62.077 58.7999 61.9444L58.7556 61.9077C58.7056 61.8664 58.6553 61.8257 58.6047 61.7854L58.5543 61.7452C58.4997 61.7039 58.4499 61.6631 58.3968 61.6223L58.37 61.6022C58.1912 61.466 58.008 61.3333 57.8232 61.2059L57.7975 61.1878C57.739 61.1481 57.6804 61.1089 57.6214 61.0702L57.5826 61.0449C57.5224 61.0051 57.4617 60.9664 57.401 60.9277L57.3906 60.9215C57.1894 60.7946 56.9843 60.673 56.7754 60.5567L56.7672 60.5515C56.701 60.5149 56.6348 60.4793 56.5687 60.4436L56.5397 60.4282C56.1875 60.2407 55.8258 60.0686 55.4547 59.9121L55.4317 59.9023C55.3338 59.861 55.2354 59.8213 55.1358 59.7821H57.0931C57.4119 59.7821 57.6706 59.4358 57.6706 59.008C57.6706 58.5801 57.4119 58.2339 57.0931 58.2339H56.5101C56.5462 58.1472 56.5862 58.0491 56.6294 57.9387C57.1806 57.6146 58.1508 56.9241 59.1133 55.6556L59.1209 55.6458C59.1938 55.5508 59.2655 55.4526 59.3358 55.3511L59.35 55.331C59.42 55.2314 59.49 55.1287 59.5589 55.0214L59.5775 54.993C59.6104 54.9414 59.6432 54.8898 59.676 54.8382C59.676 54.8382 59.676 54.834 59.6798 54.8315C59.7137 54.7798 59.7471 54.7231 59.7804 54.6679L59.8018 54.6323C59.8302 54.5848 59.8592 54.5363 59.8871 54.4872C59.8925 54.4785 59.898 54.4697 59.9029 54.4604C59.9352 54.4047 59.9675 54.3479 59.9992 54.2906L60.0211 54.2509C60.0473 54.2034 60.073 54.1554 60.0987 54.1069C60.1064 54.0935 60.114 54.0795 60.1211 54.0656C60.1518 54.0073 60.1824 53.9485 60.213 53.8886L60.2343 53.8468C60.2584 53.7983 60.283 53.7487 60.3071 53.6992L60.3333 53.6476C60.3629 53.5867 60.3918 53.5248 60.4208 53.4623L60.4389 53.4226C60.4629 53.371 60.4864 53.3194 60.51 53.2678L60.5378 53.2058C60.5652 53.1434 60.5925 53.0804 60.6188 53.017C60.6237 53.0056 60.6286 52.9937 60.633 52.9824C60.6576 52.9241 60.6817 52.8647 60.7057 52.8049L60.7331 52.7367C60.7555 52.68 60.7779 52.6227 60.7998 52.5654L60.8162 52.5221C60.8419 52.4539 60.8671 52.3843 60.8922 52.3156L60.9185 52.2424C60.9382 52.1877 60.9573 52.1319 60.9764 52.0762C60.9836 52.0555 60.9907 52.0349 60.9972 52.0143C61.0213 51.943 61.0454 51.8703 61.0689 51.7975C61.0765 51.7722 61.0847 51.7459 61.0924 51.7222L61.1471 51.5524C61.1542 51.5276 61.1618 51.5008 61.1689 51.4786C61.1914 51.4038 61.2138 51.3274 61.2351 51.2505C61.2422 51.2262 61.2488 51.2015 61.2553 51.1767C61.2718 51.1173 61.2882 51.058 61.304 50.9976C61.3111 50.9703 61.3182 50.9429 61.3259 50.9156C61.3461 50.8361 61.3664 50.7561 61.386 50.6751L61.4025 50.6075C61.4178 50.543 61.4331 50.4779 61.4478 50.4124L61.4675 50.3247C61.4861 50.2405 61.5047 50.1564 61.5222 50.0708C61.526 50.0542 61.5293 50.0372 61.5326 50.0192C61.5479 49.9454 61.5627 49.8705 61.5769 49.7957C61.5829 49.7653 61.5884 49.7348 61.5944 49.7044C61.6086 49.6275 61.6223 49.5495 61.636 49.4726C61.6387 49.4561 61.642 49.4401 61.6447 49.4241C61.66 49.3333 61.675 49.2418 61.6896 49.1496C61.6945 49.1186 61.6994 49.0877 61.7038 49.0562C61.7153 48.9814 61.7262 48.906 61.7371 48.8296L61.747 48.7594C61.7601 48.6645 61.7727 48.569 61.7847 48.472C61.7885 48.4415 61.7918 48.4111 61.7957 48.3801C61.8051 48.3031 61.8139 48.2257 61.8219 48.1479C61.8252 48.12 61.8285 48.0927 61.8312 48.0648C61.8418 47.965 61.8516 47.8644 61.8607 47.7629C61.8607 47.7345 61.8657 47.7062 61.8678 47.6773C61.875 47.5957 61.8821 47.5137 61.8881 47.4311C61.8881 47.4006 61.893 47.3702 61.8952 47.3398C61.9028 47.2345 61.91 47.1285 61.9165 47.0219C61.9165 46.9976 61.9165 46.9702 61.9203 46.9486C61.9253 46.8598 61.9302 46.7705 61.934 46.6807C61.934 46.6482 61.934 46.6157 61.9384 46.5832C61.9428 46.4722 61.9471 46.3608 61.9504 46.2478C61.9504 46.2323 61.9504 46.2163 61.9504 46.2003C61.9533 46.0998 61.9555 45.9983 61.957 45.8958C61.957 45.8623 61.957 45.8287 61.957 45.7952C61.957 45.6851 61.957 45.5743 61.957 45.4628V45.437C61.957 45.3183 61.957 45.1981 61.957 45.0758V44.9726C61.957 44.8694 61.9526 44.761 61.9499 44.6536V44.5953C61.946 44.4715 61.9411 44.3461 61.9362 44.2201C61.9362 44.1876 61.9329 44.1546 61.9318 44.1221C61.9271 44.0161 61.9216 43.9095 61.9154 43.8021C61.9154 43.7758 61.9154 43.7505 61.911 43.7221C61.9034 43.5931 61.895 43.4631 61.8859 43.332L61.8793 43.2407C61.8711 43.1312 61.8629 43.0213 61.8536 42.9104C61.8536 42.8784 61.8487 42.8464 61.846 42.8144C61.8345 42.6802 61.8219 42.5445 61.8088 42.4082C61.8088 42.3824 61.8033 42.3566 61.8011 42.3303C61.7896 42.2142 61.7771 42.0971 61.7645 41.9789C61.7607 41.9433 61.7568 41.9082 61.7525 41.8726C61.7371 41.7322 61.7207 41.5913 61.7032 41.4484C61.7032 41.4308 61.6983 41.4133 61.6961 41.3968C61.6805 41.2688 61.6639 41.1401 61.6464 41.0107C61.6409 40.9726 61.636 40.9344 61.6305 40.8962C61.6101 40.7496 61.5891 40.6018 61.5676 40.4529C59.3801 25.7585 43.8785 28.1432 43.8785 28.1432L44.375 31.3005L35 40.6464L35.4096 44.2552L38.961 46.3195C39.1193 45.9398 39.3226 45.5781 39.5669 45.2414C41.8583 42.7473 46.3039 40.7893 47.5764 40.3832C47.8313 40.3022 47.9762 40.2614 47.9762 40.2614C41.889 47.6958 42.5813 56.213 42.8525 58.2432C42.5704 58.2948 42.3522 58.6163 42.3522 59.0085C42.3522 59.4358 42.6108 59.7826 42.9297 59.7826H44.8869C41.6317 61.0684 39.0478 63.5173 37.6994 66.5946C37.6978 66.5988 37.6959 66.603 37.6939 66.607C37.5944 66.8354 37.5018 67.0672 37.4161 67.3021C37.4162 67.3045 37.4162 67.307 37.4161 67.3094C37.3931 67.3734 37.3707 67.4374 37.3488 67.5019C37.3406 67.5251 37.3324 67.5483 37.3248 67.572C37.3051 67.6298 37.2868 67.6882 37.2701 67.747C37.2602 67.7769 37.2509 67.8074 37.2416 67.8373C37.2241 67.8925 37.2072 67.9483 37.1908 68.004L37.1612 68.1072C37.1459 68.1588 37.1306 68.214 37.1164 68.2677C37.106 68.3059 37.0962 68.3436 37.0863 68.3818C37.0732 68.4334 37.0595 68.485 37.0469 68.5366C37.0344 68.5882 37.0223 68.6398 37.0103 68.6945C36.9983 68.7492 36.983 68.8132 36.9698 68.873H36.1894C36.0394 68.8699 35.8902 68.8951 35.7506 68.9472C35.611 68.9992 35.4838 69.077 35.3765 69.1761C35.2692 69.2751 35.1839 69.3934 35.1257 69.524C35.0675 69.6545 35.0375 69.7947 35.0375 69.9364C35.0375 70.078 35.0675 70.2183 35.1257 70.3488C35.1839 70.4794 35.2692 70.5977 35.3765 70.6967C35.4838 70.7958 35.611 70.8736 35.7506 70.9256C35.8902 70.9777 36.0394 71.0029 36.1894 70.9997H63.8481C63.9981 71.0029 64.1473 70.9777 64.287 70.9256C64.4266 70.8736 64.5538 70.7958 64.6611 70.6967C64.7684 70.5977 64.8536 70.4794 64.9118 70.3488C64.97 70.2183 65 70.078 65 69.9364C65 69.7947 64.97 69.6545 64.9118 69.524C64.8536 69.3934 64.7684 69.2751 64.6611 69.1761C64.5538 69.077 64.4266 68.9992 64.287 68.9472C64.1473 68.8951 63.9981 68.8699 63.8481 68.873L63.8382 68.8638Z" fill="#595653"/>
</g>
<defs>
<clipPath id="clip0_18062_5">
<rect width="100" height="100" fill="white"/>
</clipPath>
</defs>
</svg>
